<mxfile host="65bd71144e">
    <diagram id="KAa7dFpGtGHeUpf0H-IY" name="Page-1">
        <mxGraphModel dx="464" dy="450" grid="1" gridSize="10" guides="1" tooltips="1" connect="1" arrows="1" fold="1" page="1" pageScale="1" pageWidth="850" pageHeight="1100" math="0" shadow="0">
            <root>
                <mxCell id="0"/>
                <mxCell id="1" parent="0"/>
                <mxCell id="4" style="edgeStyle=none;html=1;exitX=0.25;exitY=0;exitDx=0;exitDy=0;entryX=0.25;entryY=1;entryDx=0;entryDy=0;" edge="1" parent="1" source="2" target="3">
                    <mxGeometry relative="1" as="geometry"/>
                </mxCell>
                <mxCell id="8" value="USB" style="edgeLabel;html=1;align=center;verticalAlign=middle;resizable=0;points=[];" vertex="1" connectable="0" parent="4">
                    <mxGeometry x="0.1286" y="-1" relative="1" as="geometry">
                        <mxPoint y="8" as="offset"/>
                    </mxGeometry>
                </mxCell>
                <mxCell id="5" style="edgeStyle=none;html=1;exitX=0.75;exitY=0;exitDx=0;exitDy=0;entryX=0.75;entryY=1;entryDx=0;entryDy=0;dashed=1;" edge="1" parent="1" source="2" target="3">
                    <mxGeometry relative="1" as="geometry"/>
                </mxCell>
                <mxCell id="9" value="UART&lt;br&gt;Console&lt;br&gt;" style="edgeLabel;html=1;align=center;verticalAlign=middle;resizable=0;points=[];" vertex="1" connectable="0" parent="5">
                    <mxGeometry x="0.1857" y="-3" relative="1" as="geometry">
                        <mxPoint x="-3" y="11" as="offset"/>
                    </mxGeometry>
                </mxCell>
                <mxCell id="2" value="Rasberry Pi Zero W" style="rounded=1;whiteSpace=wrap;html=1;" vertex="1" parent="1">
                    <mxGeometry x="160" y="200" width="120" height="40" as="geometry"/>
                </mxCell>
                <mxCell id="3" value="PC" style="rounded=1;whiteSpace=wrap;html=1;" vertex="1" parent="1">
                    <mxGeometry x="160" y="40" width="120" height="40" as="geometry"/>
                </mxCell>
                <mxCell id="11" value="" style="endArrow=classic;html=1;" edge="1" parent="1">
                    <mxGeometry width="50" height="50" relative="1" as="geometry">
                        <mxPoint x="120" y="120" as="sourcePoint"/>
                        <mxPoint x="180" y="140" as="targetPoint"/>
                    </mxGeometry>
                </mxCell>
                <mxCell id="12" value="Power&lt;br&gt;" style="text;html=1;strokeColor=none;fillColor=none;align=center;verticalAlign=middle;whiteSpace=wrap;rounded=0;" vertex="1" parent="1">
                    <mxGeometry x="80" y="100" width="60" height="30" as="geometry"/>
                </mxCell>
                <mxCell id="43" value="" style="shape=flexArrow;endArrow=classic;html=1;endWidth=10;endSize=6.140384615384615;width=5.384615384615384;exitX=0.5;exitY=0;exitDx=0;exitDy=0;entryX=0.5;entryY=1;entryDx=0;entryDy=0;" edge="1" parent="1" source="14" target="2">
                    <mxGeometry width="50" height="50" relative="1" as="geometry">
                        <mxPoint x="220" y="280" as="sourcePoint"/>
                        <mxPoint x="220" y="240" as="targetPoint"/>
                    </mxGeometry>
                </mxCell>
                <mxCell id="44" value="/ 8" style="edgeLabel;html=1;align=center;verticalAlign=middle;resizable=0;points=[];" vertex="1" connectable="0" parent="43">
                    <mxGeometry x="-0.3731" relative="1" as="geometry">
                        <mxPoint as="offset"/>
                    </mxGeometry>
                </mxCell>
                <mxCell id="45" value="" style="group" vertex="1" connectable="0" parent="1">
                    <mxGeometry x="155" y="300" width="130" height="130" as="geometry"/>
                </mxCell>
                <mxCell id="14" value="" style="whiteSpace=wrap;html=1;aspect=fixed;" vertex="1" parent="45">
                    <mxGeometry width="130" height="130" as="geometry"/>
                </mxCell>
                <mxCell id="17" value="3" style="whiteSpace=wrap;html=1;aspect=fixed;" vertex="1" parent="45">
                    <mxGeometry x="70" y="10" width="20" height="20" as="geometry"/>
                </mxCell>
                <mxCell id="18" value="A" style="whiteSpace=wrap;html=1;aspect=fixed;" vertex="1" parent="45">
                    <mxGeometry x="100" y="10" width="20" height="20" as="geometry"/>
                </mxCell>
                <mxCell id="20" value="2" style="whiteSpace=wrap;html=1;aspect=fixed;" vertex="1" parent="45">
                    <mxGeometry x="40" y="10" width="20" height="20" as="geometry"/>
                </mxCell>
                <mxCell id="21" value="1" style="whiteSpace=wrap;html=1;aspect=fixed;" vertex="1" parent="45">
                    <mxGeometry x="10" y="10" width="20" height="20" as="geometry"/>
                </mxCell>
                <mxCell id="22" value="B" style="whiteSpace=wrap;html=1;aspect=fixed;" vertex="1" parent="45">
                    <mxGeometry x="100" y="40" width="20" height="20" as="geometry"/>
                </mxCell>
                <mxCell id="24" value="C" style="whiteSpace=wrap;html=1;aspect=fixed;" vertex="1" parent="45">
                    <mxGeometry x="100" y="70" width="20" height="20" as="geometry"/>
                </mxCell>
                <mxCell id="25" value="D" style="whiteSpace=wrap;html=1;aspect=fixed;" vertex="1" parent="45">
                    <mxGeometry x="100" y="100" width="20" height="20" as="geometry"/>
                </mxCell>
                <mxCell id="26" value="6" style="whiteSpace=wrap;html=1;aspect=fixed;" vertex="1" parent="45">
                    <mxGeometry x="70" y="40" width="20" height="20" as="geometry"/>
                </mxCell>
                <mxCell id="27" value="7" style="whiteSpace=wrap;html=1;aspect=fixed;" vertex="1" parent="45">
                    <mxGeometry x="10" y="70" width="20" height="20" as="geometry"/>
                </mxCell>
                <mxCell id="28" value="#" style="whiteSpace=wrap;html=1;aspect=fixed;" vertex="1" parent="45">
                    <mxGeometry x="70" y="100" width="20" height="20" as="geometry"/>
                </mxCell>
                <mxCell id="29" value="5" style="whiteSpace=wrap;html=1;aspect=fixed;" vertex="1" parent="45">
                    <mxGeometry x="40" y="40" width="20" height="20" as="geometry"/>
                </mxCell>
                <mxCell id="30" value="8" style="whiteSpace=wrap;html=1;aspect=fixed;" vertex="1" parent="45">
                    <mxGeometry x="40" y="70" width="20" height="20" as="geometry"/>
                </mxCell>
                <mxCell id="31" value="0" style="whiteSpace=wrap;html=1;aspect=fixed;" vertex="1" parent="45">
                    <mxGeometry x="40" y="100" width="20" height="20" as="geometry"/>
                </mxCell>
                <mxCell id="32" value="4" style="whiteSpace=wrap;html=1;aspect=fixed;" vertex="1" parent="45">
                    <mxGeometry x="10" y="40" width="20" height="20" as="geometry"/>
                </mxCell>
                <mxCell id="33" value="9" style="whiteSpace=wrap;html=1;aspect=fixed;" vertex="1" parent="45">
                    <mxGeometry x="70" y="70" width="20" height="20" as="geometry"/>
                </mxCell>
                <mxCell id="34" value="*" style="whiteSpace=wrap;html=1;aspect=fixed;" vertex="1" parent="45">
                    <mxGeometry x="10" y="100" width="20" height="20" as="geometry"/>
                </mxCell>
            </root>
        </mxGraphModel>
    </diagram>
</mxfile>